<svg xmlns="http://www.w3.org/2000/svg" width="21.401" height="24" viewBox="0 0 21.401 24"><g transform="translate(0 0)"><path d="M1445.6-693.949h-.723v-.789a1.787,1.787,0,0,0-1.758-1.811,1.786,1.786,0,0,0-1.758,1.811v.788h-1.8v-.788a1.787,1.787,0,0,0-1.758-1.811,1.786,1.786,0,0,0-1.758,1.811v.788h-1.8v-.788a1.786,1.786,0,0,0-1.758-1.811,1.786,1.786,0,0,0-1.758,1.811v.788h-.924a2.8,2.8,0,0,0-2.8,2.8v15.8a2.8,2.8,0,0,0,2.8,2.8h15.8a2.8,2.8,0,0,0,2.8-2.8v-15.8A2.8,2.8,0,0,0,1445.6-693.949Zm-3.251-.789a.8.8,0,0,1,.77-.823.8.8,0,0,1,.771.823v3.224a.8.8,0,0,1-.771.823.8.8,0,0,1-.77-.823Zm-5.321,0a.8.8,0,0,1,.771-.823.8.8,0,0,1,.771.823v3.224a.8.8,0,0,1-.771.823.8.8,0,0,1-.771-.823Zm-5.321,0a.8.8,0,0,1,.77-.823.8.8,0,0,1,.771.823v3.224a.8.8,0,0,1-.771.823.8.8,0,0,1-.77-.823Zm15.046,19.391a1.154,1.154,0,0,1-1.152,1.152h-15.8a1.154,1.154,0,0,1-1.152-1.152v-14.487h18.108Z" transform="translate(-1426.997 696.549)"/><rect width="3.026" height="2.693" transform="translate(3.128 9.631)"/><rect width="3.026" height="2.693" transform="translate(7.166 9.631)"/><rect width="3.026" height="2.693" transform="translate(11.208 9.631)"/><rect width="3.026" height="2.693" transform="translate(15.247 9.631)"/><rect width="3.026" height="2.691" transform="translate(3.128 13.225)"/><rect width="3.026" height="2.691" transform="translate(7.166 13.225)"/><rect width="3.026" height="2.691" transform="translate(11.208 13.225)"/><rect width="3.026" height="2.691" transform="translate(15.247 13.225)"/><rect width="3.026" height="2.691" transform="translate(3.128 16.818)"/><rect width="3.026" height="2.691" transform="translate(7.166 16.818)"/><rect width="3.026" height="2.691" transform="translate(11.208 16.818)"/><rect width="3.026" height="2.691" transform="translate(15.247 16.818)"/></g></svg>