<svg xmlns="http://www.w3.org/2000/svg" width="19.025" height="24" viewBox="0 0 19.025 24"><defs><style>.a{fill:#020202;}</style></defs><path class="a" d="M1366.621-453.133a4.559,4.559,0,0,0,0,.748,5.264,5.264,0,0,0,0,.8,4.586,4.586,0,0,0,0,.748,4.4,4.4,0,0,0,0,.751q0,.164-.01.328l-.03.095-.068.134-.275.207-.516.022a3.1,3.1,0,0,0-.753,0,3.682,3.682,0,0,0-.747,0,3.618,3.618,0,0,0-.8,0l-.328-.026a.614.614,0,0,1-.341-.627c.016-.791.009-1.583,0-2.374,0-.07.074-.2-.081-.219a4.223,4.223,0,0,0-.747,0q-1.518-.008-3.037-.016c-.163,0-.2.107-.236.231a4.579,4.579,0,0,1-.521.513l-.415.209-.146.04a.154.154,0,0,0-.141.035l-.093.011a3.463,3.463,0,0,1-.793-.07l-.1-.034a3.689,3.689,0,0,1-.651-.433l-.222-.278a.28.28,0,0,0-.322-.225q-1.779.012-3.557,0c-.189,0-.232.054-.229.236.014.843.012,1.685.016,2.528a.854.854,0,0,1-.275.429l-.093.049-.656.026a3.609,3.609,0,0,0-.8,0,3.684,3.684,0,0,0-.747,0,3.1,3.1,0,0,0-.753,0l-.232-.035a.61.61,0,0,1-.32-.553c.008-1.092.006-2.183.005-3.275q0-1.766-.008-3.532l.045-.132a.642.642,0,0,1,.6-.282c.855.011,1.711,0,2.566,0a1.452,1.452,0,0,1,.391.044l.176.142a.9.9,0,0,1,.094.45c0,.708,0,1.416-.009,2.123,0,.181.054.226.224.217.271-.014.544,0,.816-.007.582,0,1.164.021,1.746-.018a3.62,3.62,0,0,0,.792,0c.161,0,.34.1.47-.075.1-.131.186-.267.279-.4h0a1.881,1.881,0,0,1,.316-.234c.187-.087.217-.219.216-.409-.006-2.121,0-4.243,0-6.364q0-2.971,0-5.943a.235.235,0,0,0-.125-.247,1.651,1.651,0,0,1-.667-.67.182.182,0,0,0-.185-.109c-.412.007-.825.01-1.237.014a3.256,3.256,0,0,0-.608,0,6.823,6.823,0,0,0-.89,0H1352c-.123,0-.247,0-.37-.012-.163-.013-.183.069-.145.2a3.646,3.646,0,0,0,0,.7,4.355,4.355,0,0,0,0,.8,3.944,3.944,0,0,0,0,.8.668.668,0,0,1-.363.593l-.67.024a4.962,4.962,0,0,0-.8,0,4.269,4.269,0,0,0-.748,0,4.184,4.184,0,0,0-.75,0c-.423-.068-.517-.179-.565-.664a4.339,4.339,0,0,0,0-.75,4.327,4.327,0,0,0,0-.749,5.2,5.2,0,0,0,0-.8,4.327,4.327,0,0,0,0-.749,4.351,4.351,0,0,0,0-.75,4.686,4.686,0,0,0,0-.8,4.339,4.339,0,0,0,0-.75,4.575,4.575,0,0,0,0-.8c.039-.233-.015-.472.044-.7a.667.667,0,0,1,.38-.294h3.045l.132.04a.626.626,0,0,1,.274.578c-.008.73,0,1.46,0,2.19,0,.335-.042.292.3.3.061,0,.123-.008.185-.013a4.8,4.8,0,0,0,.794,0,4.317,4.317,0,0,0,.751,0,4.339,4.339,0,0,0,.747,0,5.064,5.064,0,0,0,.8,0,.474.474,0,0,0,.59-.25,1.7,1.7,0,0,1,.906-.692,3,3,0,0,1,.8-.079,3.155,3.155,0,0,1,.7.238l.418.337c.137.139.175.36.373.447a5.228,5.228,0,0,0,.8,0,4.337,4.337,0,0,0,.746,0,4.345,4.345,0,0,0,.752,0,4.8,4.8,0,0,0,.793,0,4.236,4.236,0,0,0,.752,0c.066.014.082-.018.069-.076a.99.99,0,0,0,0-.378c0-.03,0-.06,0-.09a3.841,3.841,0,0,0,0-.758q0-.07,0-.14a10.927,10.927,0,0,0,0-1.215l.016-.094a.1.1,0,0,0,.047-.092.65.65,0,0,1,.382-.251h3l.188.062.187.188a4.871,4.871,0,0,1,.057.8,4.45,4.45,0,0,0,0,.751,4.558,4.558,0,0,0,0,.748,5.264,5.264,0,0,0,0,.8,4.586,4.586,0,0,0,0,.748,4.4,4.4,0,0,0,0,.751,5.012,5.012,0,0,0,0,.8,4.45,4.45,0,0,0,0,.751,4.531,4.531,0,0,0,0,.748c-.051.533-.18.648-.729.648-.835,0-1.669,0-2.5,0a1.02,1.02,0,0,1-.431-.08l-.14-.147a.141.141,0,0,0-.053-.114v0c0-.85-.007-1.7,0-2.549,0-.166-.044-.218-.207-.206-.225.016-.451.011-.676.014h-.7a5.527,5.527,0,0,0-.8,0,4.7,4.7,0,0,0-.749,0c-.255,0-.51-.006-.765-.014a.164.164,0,0,0-.167.1,1.689,1.689,0,0,1-.695.7.163.163,0,0,0-.1.164c.009.247.011.495.016.742a4.2,4.2,0,0,0,0,.748,4.943,4.943,0,0,0,0,.8c-.019.765-.021,1.529,0,2.294a4.274,4.274,0,0,0,0,.753,4.231,4.231,0,0,0,0,.747,4.943,4.943,0,0,0,0,.8c-.019.765-.021,1.529,0,2.294a4.274,4.274,0,0,0,0,.753,4.232,4.232,0,0,0,0,.747,4.942,4.942,0,0,0,0,.8c0,.354-.006.708-.011,1.062a.173.173,0,0,0,.092.169c.136.086.264.184.4.277.1.145.214.286.309.437a.221.221,0,0,0,.22.1c1.216,0,2.432,0,3.648,0,.164,0,.19-.065.189-.208-.005-.726,0-1.451,0-2.177,0-.408.18-.59.581-.59.873,0,1.746,0,2.619,0a.844.844,0,0,1,.508.134c.208.236.108.531.151.8a4.587,4.587,0,0,0,0,.748,4.4,4.4,0,0,0,0,.751,5.012,5.012,0,0,0,0,.8A4.451,4.451,0,0,0,1366.621-453.133Z" transform="translate(-1347.596 473.302)"/></svg>