<svg xmlns="http://www.w3.org/2000/svg" width="20.263" height="24" viewBox="0 0 20.263 24"><defs><style>.a{fill:#020202;}</style></defs><path class="a" d="M605.675-671.873c0-.02,0-.04,0-.06l-.007-.06-.047-.246a2.89,2.89,0,0,0-.228-.687,5.1,5.1,0,0,0-.858-.987,2.68,2.68,0,0,0,.882-.895,3.512,3.512,0,0,0,.254-.732,1.465,1.465,0,0,1,.027-.366,1.287,1.287,0,0,1-.028-.321,3.608,3.608,0,0,0-.291-.777,2.43,2.43,0,0,0-.868-.843,3.228,3.228,0,0,0-.729-.252,1.967,1.967,0,0,1-.365-.011,1.548,1.548,0,0,1-.369-.012l-.362-.005a1.22,1.22,0,0,1-.371,0,1.482,1.482,0,0,1-.362,0,1.224,1.224,0,0,1-.371,0,1.491,1.491,0,0,1-.362,0,1.224,1.224,0,0,1-.371,0l-.365.007-.024.019q0,.182,0,.365a1.411,1.411,0,0,1,0,.4,1.322,1.322,0,0,1,0,.337,1.143,1.143,0,0,1,0,.366,1.462,1.462,0,0,1,0,.367,1.139,1.139,0,0,1,0,.366,1.456,1.456,0,0,1,0,.367,1.14,1.14,0,0,1,0,.366,1.459,1.459,0,0,1,0,.367,1.14,1.14,0,0,1,0,.366,1.465,1.465,0,0,1,0,.367,1.143,1.143,0,0,1,0,.366,1.469,1.469,0,0,1,0,.367,1.144,1.144,0,0,1,0,.366,1.468,1.468,0,0,1,0,.367,1.142,1.142,0,0,1,0,.366,1.468,1.468,0,0,1,0,.367,1.141,1.141,0,0,1,0,.366c.02.038-.005.086.029.12l.366,0h.366a1.763,1.763,0,0,1,.367,0l.365-.006q.005-.06.01-.12v-1.831c-.014-.379-.045-.287.287-.3a.318.318,0,0,1,.072.014,1.556,1.556,0,0,1,.364,0c.145-.01.3-.075.4.1a.622.622,0,0,1,.151.149,2.594,2.594,0,0,1,.814,1.137,1.467,1.467,0,0,1,.1.365.721.721,0,0,1,.057.337c-.008.117.027.165.148.148a.893.893,0,0,1,.164.006h.366a1.771,1.771,0,0,1,.367,0h.366c.093,0,.088-.063.092-.125A1.818,1.818,0,0,1,605.675-671.873Zm-1.574-3.659a.618.618,0,0,1-.321.317.7.7,0,0,1-.333.048,1.271,1.271,0,0,1-.4.021h-.365l-.49.008-.18.006c-.044.022-.062.007-.054-.041q0-.182,0-.364t0-.369q0-.182,0-.365a.067.067,0,0,1,0-.015c.006-.415-.1-.356.362-.341a1.4,1.4,0,0,1,.365.016,1.588,1.588,0,0,1,.367.005l.366,0a.819.819,0,0,1,.368.062.644.644,0,0,1,.3.267.54.54,0,0,1,.1.368A.6.6,0,0,1,604.1-675.531Zm-6.617,2.67a2.26,2.26,0,0,1-2.26,2.26,2.26,2.26,0,0,1-2.26-2.26,2.254,2.254,0,0,1,.759-1.689c.09-.1.184-.2.28-.29a1.34,1.34,0,0,0,.266-.328l.028-.059a.239.239,0,0,0,.053-.106,3.3,3.3,0,0,0,.1-.938,1.609,1.609,0,0,0,.008-.365q0-.184,0-.368t0-.365q0-.184,0-.368v-.335c0-.025.007-.05.007-.075.007-.734.011-1.467.023-2.2a2.348,2.348,0,0,1-1.5-1.515h-.018q-2.166,0-4.331,0c-.025,0-.051,0-.076,0-.049,0-.078.015-.076.068.014.294-.016.588.016.881q0,.122,0,.244a1.7,1.7,0,0,0,0,.4q0,.168,0,.335a1.71,1.71,0,0,0,0,.4q0,.167,0,.335,0,.184,0,.368t0,.365q0,.184,0,.368t0,.365q0,.184,0,.368t0,.365a1.821,1.821,0,0,0,0,.368q0,.182,0,.365a.932.932,0,0,0,0,.279v.036l0,.05a1.453,1.453,0,0,0,.006.373,1.075,1.075,0,0,0,.212.4q.279.338.562.674a2.275,2.275,0,0,1,.252.3l.109.13a2.7,2.7,0,0,1,.274.7l.047.364-.01.365-.1.43-.021.058a.352.352,0,0,0-.02.031A2.261,2.261,0,0,1,587.7-670.6a2.26,2.26,0,0,1-2.26-2.26,2.257,2.257,0,0,1,.96-1.848.922.922,0,0,0,.067-.091l.119-.142a.786.786,0,0,0,.177-.229.925.925,0,0,0,.187-.33,1.166,1.166,0,0,0,.014-.4v-.364a1.744,1.744,0,0,0,0-.369V-677a1.751,1.751,0,0,0,0-.369v-.364a1.749,1.749,0,0,0,0-.369v-.364a1.744,1.744,0,0,0,0-.369v-.364a1.743,1.743,0,0,0,0-.369v-.364a1.75,1.75,0,0,0,0-.369v-.364a1.477,1.477,0,0,0,0-.339v-.394a1.751,1.751,0,0,0,0-.37v-.364a1.748,1.748,0,0,0,0-.369v-.364a1.476,1.476,0,0,0,0-.339v-.364a1.751,1.751,0,0,0,0-.369v-.364a1.744,1.744,0,0,0,0-.369v-.364a1.751,1.751,0,0,0,0-.369v-.364a1.749,1.749,0,0,0,0-.369v-.364a1.75,1.75,0,0,0,0-.369v-.364a1.745,1.745,0,0,0,0-.369v-.364a1.743,1.743,0,0,0,0-.369v-.364a1.752,1.752,0,0,0,0-.369v-.364c.005-.127.042-.26-.057-.371a2.846,2.846,0,0,0-.478-.668,2.258,2.258,0,0,1-.988-1.868,2.26,2.26,0,0,1,1.96-2.24l0-.015h.151c.048,0,.1-.005.146-.005s.1,0,.146.005h.138a.023.023,0,0,1,.013.015,2.262,2.262,0,0,1,1.88,1.635q.035.105.063.213l.034.366-.028.368-.052.279a3.184,3.184,0,0,1-.29.6,2.273,2.273,0,0,1-.364.437l-.116.136a2.552,2.552,0,0,0-.315.385l-.038.047a.785.785,0,0,0-.2.32.479.479,0,0,0-.058.367,1.674,1.674,0,0,0-.005.365v.365a1.734,1.734,0,0,0,0,.368q0,.182,0,.365t0,.368q0,.183,0,.365t0,.368v.7q0,.2,0,.4a1.312,1.312,0,0,0,0,.336v.4a1.265,1.265,0,0,0,0,.336q0,.2,0,.4a1.006,1.006,0,0,0,0,.335,1.966,1.966,0,0,0,0,.4.205.205,0,0,0,0,.149c-.009.032-.019.065.036.056a.665.665,0,0,0,.246,0h.365a1.493,1.493,0,0,0,.368,0h.365a1.482,1.482,0,0,0,.368,0h.365a1.485,1.485,0,0,0,.368,0h.365a1.277,1.277,0,0,0,.338,0h.4a1.28,1.28,0,0,0,.338,0h.4a1.513,1.513,0,0,0,.2.013,2.348,2.348,0,0,1,1.468-1.444.354.354,0,0,0,.008-.2l-.009-.044-.006-.4a.046.046,0,0,0,0-.055c0-.01,0-.021,0-.031a.462.462,0,0,0-.007-.246,1.985,1.985,0,0,0,0-.4c.01-.357.009-.713-.009-1.069q0-.183,0-.365t0-.368q0-.183,0-.365v-.368a1.793,1.793,0,0,0-.023-.458q0-.138-.009-.275c.017-.088-.058-.153-.052-.242a.667.667,0,0,0-.2-.5,1.116,1.116,0,0,0-.256-.28l-.075-.078c-.008-.013-.017-.026-.027-.038a2.256,2.256,0,0,1-.855-1.77,2.261,2.261,0,0,1,1.891-2.23.111.111,0,0,1,.007-.025h.217c.048,0,.1-.005.146-.005s.1,0,.146.005h.163a.021.021,0,0,1,.013.018,2.261,2.261,0,0,1,1.938,2.237,2.255,2.255,0,0,1-.857,1.771l-.025.036a.386.386,0,0,0-.127.143.8.8,0,0,0-.182.222.881.881,0,0,0-.215.336.347.347,0,0,0-.085.249q-.012,2.36-.031,4.72a.393.393,0,0,0,.005.07,2.349,2.349,0,0,1,1.466,1.441c.035,0,.081-.005.147-.009h.334a1.767,1.767,0,0,0,.4,0h.334a1.784,1.784,0,0,0,.4,0h.335a1.771,1.771,0,0,0,.4,0h.334a1.49,1.49,0,0,0,.368,0h.365a1.484,1.484,0,0,0,.368,0h.365c.045,0,.089.009.134.009.249,0,.249,0,.232-.246q0-.168,0-.335,0-.2,0-.4,0-.168,0-.335,0-.2,0-.4,0-.168,0-.335a1.852,1.852,0,0,0,0-.367q0-.2,0-.4a1.551,1.551,0,0,0,0-.337q0-.2,0-.4a1.306,1.306,0,0,0,0-.338q0-.182,0-.364c0-.408.019-.817-.014-1.225l0-.243a1.21,1.21,0,0,0,0-.366.5.5,0,0,0-.05-.372.8.8,0,0,0-.122-.225,5.714,5.714,0,0,0-.421-.5,2.257,2.257,0,0,1-.9-1.807,2.261,2.261,0,0,1,1.913-2.234.036.036,0,0,1,.009-.021h.192c.048,0,.1-.005.146-.005s.1,0,.146.005h.158a.116.116,0,0,0,0,.016,2.262,2.262,0,0,1,1.91,1.8c0,.015.01.03.014.046s0,.044.005.066a2.265,2.265,0,0,1,.023.289v.019c0,.006,0,.013,0,.019a2.255,2.255,0,0,1-.792,1.718,3.564,3.564,0,0,0-.368.442h0a.994.994,0,0,0-.229.336.5.5,0,0,0-.08.411v.366q0,.183,0,.367t0,.366q0,.183,0,.367t0,.365a1.4,1.4,0,0,0,0,.368q0,.182-.007.364a1.172,1.172,0,0,0,0,.369,1.385,1.385,0,0,0-.009.364,1.69,1.69,0,0,0,0,.368q0,.167,0,.335,0,.2,0,.4v.733q0,.168,0,.335a4.427,4.427,0,0,0-.017.673l-.005.059a2.175,2.175,0,0,0,0,.4q0,.121-.009.243a.231.231,0,0,0-.023.133.578.578,0,0,1-.5.545c-.414.043-.832.034-1.248.036l-4.162.015h-.022a2.349,2.349,0,0,1-1.5,1.515q.02,2.358.031,4.716a.351.351,0,0,0,.085.25.434.434,0,0,0,.124.213,1.679,1.679,0,0,0,.3.373l.007-.006-.006.007q.066.09.139.174A2.255,2.255,0,0,1,597.485-672.861Z" transform="translate(-585.444 694.601)"/></svg>