<svg xmlns="http://www.w3.org/2000/svg" width="154.76" height="50" viewBox="0 0 154.76 50"><path d="M1037.786,45.487h-6.674V41.594h18.076v3.893h-6.649V63.559h-4.753Zm33.86,7.014c0,6.113-3.671,11.376-10.8,11.376-6.895,0-10.5-5.009-10.5-11.3,0-6.393,3.986-11.3,10.808-11.3C1067.574,41.275,1071.646,45.778,1071.646,52.5Zm-16.4-.02c0,4.288,1.881,7.532,5.776,7.532,4.224,0,5.719-3.538,5.719-7.452,0-4.156-1.7-7.421-5.8-7.421C1056.977,45.14,1055.245,48.2,1055.245,52.481Zm20.545-10.887h9.085c4.667,0,7.836,2.627,7.836,6.8,0,4.772-3.613,6.961-7.947,6.961h-4.223v8.2h-4.752Zm4.752,9.982h3.625c2.2,0,3.752-.846,3.752-3.088,0-2.266-1.639-3.113-3.651-3.113h-3.725Zm90.685-6.564a1.959,1.959,0,0,1-1.96,1.96H1154.1a1.937,1.937,0,0,1-.562-.091c.087-.1.179-.184.26-.291.846-1.138,1.565-2.36,2.35-3.537h13.124A1.959,1.959,0,0,1,1171.227,45.012Zm-15.426,9.84h-7c-.933,1.3-1.9,2.576-2.8,3.9.065.006.129.02.2.02h9.608a1.96,1.96,0,1,0,0-3.919ZM1142.587,65.64H1139.6q-1.423,1.9-2.674,3.918h5.661a1.96,1.96,0,1,0,0-3.919Zm-45.214,11.61c36.892-.031,38.813-16.13,38.877-16.816a1.561,1.561,0,0,0-1.554-1.705h-1.8c7.021-1.993,10.85-4.646,12.929-7.059,2.876-3.338,2.54-6.241,2.493-6.561a1.561,1.561,0,0,0-1.544-1.331h-5.451c11.057-2.438,16.313-5.929,18.73-9.079,2.5-3.256,1.876-5.94,1.8-6.235a1.56,1.56,0,0,0-1.507-1.157H1035.37a18.924,18.924,0,0,0-18.9,18.9V75.69a1.56,1.56,0,0,0,1.561,1.561h77.584a5.087,5.087,0,0,1,.556.028c.162.016.314.028.489.028A5.3,5.3,0,0,0,1097.373,77.251ZM1019.588,46.21a15.8,15.8,0,0,1,15.782-15.781h123.391a6.3,6.3,0,0,1-1.326,2.555c-3.267,4.031-14.516,10.795-53.142,10.795a1.561,1.561,0,1,0,0,3.121h40.746a7.674,7.674,0,0,1-1.722,2.9c-3,3.335-12.085,8.93-39.225,8.93a1.561,1.561,0,0,0,0,3.121h28.463c-1.775,3.743-8.739,12.278-35.293,12.278a1.616,1.616,0,0,0-.23.017,1.694,1.694,0,0,1-.564.025,8.048,8.048,0,0,0-.856-.042h-76.023Z" transform="translate(-1016.467 -27.307)"/></svg>