<svg xmlns="http://www.w3.org/2000/svg" xmlns:xlink="http://www.w3.org/1999/xlink" width="24" height="24.191" viewBox="0 0 24 24.191"><defs><style>.a{fill:url(#a);}</style><linearGradient id="a" x1="0.5" x2="0.5" y2="1" gradientUnits="objectBoundingBox"><stop offset="0" stop-color="#da1245"/><stop offset="0.648" stop-color="#da1245"/><stop offset="0.717" stop-color="#da1245" stop-opacity="0.502"/><stop offset="1" stop-color="#da1245" stop-opacity="0"/></linearGradient></defs><path class="a" d="M348.554,748.658c.011-.205-.048-.456.048-.608.255-.4.919-.756-.176-.993-.365-.079-.416-.693-.31-1.134a.7.7,0,0,1,.853-.6c1.493.338,1.738-.559,2.157-1.73a3.828,3.828,0,0,1,3.063-2.524c3.168-.056,9.816-.016,10.147-.009a4.49,4.49,0,0,1,3.937,3.193c.306.863.5,1.182,1.4,1.068.611-.077,1.25-.066,1.324.809.083.985-.732.721-1.236.881-.014.093-.065.2-.033.25.839,1.316.845,1.334-.723,1.629a5.276,5.276,0,0,0-2.151.822c-.275.2-.624.381-.478.807.126.368.485.309.771.306a23.675,23.675,0,0,0,2.84-.093c.849-.112,1.039.182,1.01.96-.052,1.372-.037,2.748-.006,4.122.021.918-.357,1.364-1.3,1.337-.689-.02-1.382-.037-2.069.006-1.105.068-1.911-.152-1.776-1.512.049-.5-.2-.663-.7-.636a104.968,104.968,0,0,1-11.246,0c-.6-.033-.758.252-.713.77.1,1.1-.5,1.455-1.5,1.375-.257-.02-.517,0-.776,0-2.634,0-2.634,0-2.9-2.525a13.627,13.627,0,0,0,0-3.1q.005-.295.01-.59c1.168-.444,2.361.046,3.541-.088.392-.044.882,0,.985-.392.112-.423-.4-.563-.707-.768C350.856,749.016,349.6,749.188,348.554,748.658Zm10.9-2.086v-.007c2.453,0,4.905.019,7.357-.017.461-.007,1.123.068,1.16-.7.054-1.125-1.238-3.226-2.356-3.516-1.272-.33-7.518-.166-10.8-.174-2.125,0-2.725.82-3.409,2.812-.445,1.3-.432,1.546.949,1.586C354.717,746.623,357.085,746.572,359.451,746.572Zm.027,5.406c-1.33,0-2.66.008-3.99,0-.5,0-1.1-.191-1.171.589-.059.686.086,1.375.911,1.441a53.991,53.991,0,0,0,8.618,0c.825-.066.976-.746.919-1.438-.065-.787-.668-.6-1.17-.593C362.224,751.983,360.851,751.978,359.479,751.979Zm9.072-.123c-.509.057-.889.3-.918.85a.8.8,0,0,0,.83.918.818.818,0,0,0,.935-.819C369.436,752.254,369.075,751.973,368.55,751.856Zm-18.017-.014a.9.9,0,0,0-.846.92.792.792,0,0,0,.883.861.807.807,0,0,0,.871-.882A.877.877,0,0,0,350.533,751.842Zm20.427,9.575c-.012.1.05.228-.05.3-.267.2-.959.378.184.5a.37.37,0,0,1,.323.567c-.112.221-.445.35-.89.3-1.559-.169-1.815.28-2.252.865a4.533,4.533,0,0,1-3.2,1.262c-3.309.028-10.249.008-10.6,0a5.276,5.276,0,0,1-4.111-1.6c-.319-.432-.525-.591-1.467-.534-.638.038-1.306.033-1.382-.4-.086-.492.764-.361,1.29-.44.015-.047.069-.1.034-.125-.876-.658-.882-.667.755-.814a9.783,9.783,0,0,0,2.246-.411c.287-.1.652-.191.5-.4-.132-.184-.506-.155-.805-.153-.99.005-1.99-.016-2.965.046-.887.056-1.085-.091-1.054-.48a16.394,16.394,0,0,0,.007-2.061c-.022-.459.373-.682,1.353-.669.719.01,1.443.018,2.16,0,1.154-.034,1.995.076,1.855.756-.052.25.206.331.729.318q5.871-.149,11.742,0c.631.017.792-.126.744-.385-.1-.552.518-.728,1.566-.688.268.01.54,0,.81,0,2.75,0,2.75,0,3.028,1.263a3.29,3.29,0,0,0,0,1.549q-.006.147-.01.295a29.339,29.339,0,0,1-3.7.044c-.409.022-.921,0-1.029.2-.117.212.417.281.738.384C368.556,761.238,369.873,761.152,370.96,761.417Zm-11.378,1.043v0c-2.561,0-5.122-.01-7.682.009-.481,0-1.172-.034-1.211.352-.057.562,1.292,1.613,2.459,1.758,1.328.165,7.849.083,11.277.087,2.218,0,2.845-.41,3.559-1.406.464-.648.451-.773-.991-.793C364.525,762.435,362.053,762.46,359.582,762.46Zm-.028-2.7c1.388,0,2.777,0,4.165,0,.527,0,1.153.1,1.223-.295.061-.343-.09-.688-.952-.72q-4.5-.173-9,0c-.861.033-1.019.373-.959.719.068.394.7.3,1.221.3C356.687,759.755,358.12,759.757,359.554,759.757Zm-9.472.061c.532-.028.928-.148.958-.425s-.294-.444-.866-.459-.938.141-.977.409S349.534,759.759,350.082,759.818Zm18.812.007c.516-.048.89-.185.883-.46s-.331-.435-.922-.431-.916.173-.91.441S368.3,759.8,368.894,759.825Z" transform="translate(-347.515 -741.037)"/></svg>