<svg xmlns="http://www.w3.org/2000/svg" width="19.473" height="24" viewBox="0 0 19.473 24"><defs><style>.a{fill:#070707;}</style></defs><path class="a" d="M1099.345-637.188c-2.646,0-5.292-.02-7.937.016-.59.008-.745-.156-.709-.726.051-.808-.028-1.624.028-2.431.033-.474-.4-1.212.642-1.276.294-.018.154-.55.154-.843.008-5.863.036-11.726-.022-17.589-.01-1,.294-1.143,1.185-1.135,4.606.045,9.213.033,13.819.006.632,0,.941.128.818.8-.016.091.012.189,0,.28-.347,1.952.186,3.359,2.316,3.8.456.094.506.431.5.844-.014,3.243,0,6.487-.013,9.73a2.1,2.1,0,0,1-2.312,2.314c-.444,0-.562.131-.488.505.1.531-.422,1.384.7,1.44a1.734,1.734,0,0,1,.088.6c.009.967-.033,1.935.018,2.9.032.605-.141.782-.76.773C1104.7-637.208,1102.022-637.188,1099.345-637.188Zm.142-12.818c-1.958,0-3.916.019-5.873-.013-.528-.008-.681.135-.675.669q.043,3.549,0,7.1c-.007.556.116.742.712.737q5.78-.044,11.559,0c.523,0,.691-.14.685-.676-.027-2.366-.031-4.732,0-7.1.008-.576-.15-.738-.725-.727C1103.279-649.984,1101.383-650.006,1099.488-650.006Zm-.106-1.408c1.928,0,3.856-.018,5.783.012.539.008.754-.08.742-.7-.042-2.3-.034-4.611,0-6.916.007-.559-.122-.752-.718-.748q-5.783.04-11.567,0c-.52,0-.69.132-.683.674q.043,3.5,0,7.009c-.006.521.127.684.663.675C1095.526-651.433,1097.454-651.414,1099.382-651.414Zm.027,12.824c2.175,0,4.35-.023,6.524.014.64.011.85-.152.844-.82-.006-.625-.193-.777-.794-.773q-6.57.035-13.141,0c-.678-.005-.727.27-.75.819-.027.631.188.788.793.778C1095.059-638.611,1097.234-638.59,1099.409-638.59Zm7.913-9.922c0,.931.01,1.861,0,2.792-.007.492.113.9.675.914s.709-.383.708-.879c0-1.923-.027-3.847.013-5.77.014-.683-.4-.515-.78-.557-.489-.054-.642.121-.623.615C1107.349-650.436,1107.322-649.473,1107.322-648.512Zm0-7.246c0,.541.024,1-.006,1.452-.037.552-.015.887.739.893.8.006.585-.455.656-.887C1108.888-655.377,1108.071-655.444,1107.322-655.758Zm-7.951,3.06c-1.555,0-3.111-.017-4.666.01-.474.008-.646-.106-.635-.614.033-1.558.029-3.117,0-4.675-.008-.459.142-.571.581-.569q4.759.025,9.518,0c.43,0,.6.1.587.562-.028,1.558-.031,3.117,0,4.675.01.5-.145.629-.63.62C1102.544-652.715,1100.957-652.7,1099.371-652.7Zm.124-1.367h1.583c2.379,0,2.353,0,2.321-2.4-.008-.62-.242-.711-.769-.7-1.614.026-3.228.01-4.842.01-2.384,0-2.359,0-2.318,2.4.01.614.231.715.766.7C1097.321-654.09,1098.409-654.064,1099.495-654.064Z" transform="translate(-1090.667 661.172)"/></svg>