<svg xmlns="http://www.w3.org/2000/svg" width="123.179" height="45.826" viewBox="0 0 123.179 45.826"><defs><style>.a{fill:#fff;}</style></defs><g transform="translate(0)"><path class="a" d="M782.219,804.871l-.888-.168a29.256,29.256,0,0,0-11.751-4.44c-9.869-.649-19.744-.38-29.612-.069-7,.22-13.322,2.772-19.3,6.273-.18.029-.47.142-.521.074-.158-.21,0-.353.231-.411.066-.824-.47-.793-1.056-.792-6.807.011-13.615.007-18.3.007l11.256,1.68-.034.634c-1.266,0-2.533-.009-3.8,0-.863.008-1.61.3-1.612,1.281,0,1.046.794,1.249,1.647,1.152a2.165,2.165,0,0,1,2.6,1.314c.652,1.375-.6,1.6-1.068,2.224-1.642,2.19-1.725,4.762-1.941,7.327-.949.207-1.414-.6-2.1-.877-3.224-1.292-6.1-.05-6.926,3.293a3.4,3.4,0,0,1-1.9,2.264c-4.082,2.6-6.622,6.668-8.3,10.966-1.386,3.557,1.817,6.636,5.869,6.22a7.626,7.626,0,0,1,3.848.452,4.72,4.72,0,0,0,3.663.163,10.058,10.058,0,0,1,6.452-.588,5.625,5.625,0,0,0,3.643-.579,3.868,3.868,0,0,1,2.935-.327c2.632-.253,5.631.5,7.4-2.31.822-1.31,1.884-1.362,3.185-1.268,5.287.381,10.574.861,15.869,1,2.558.068,4.4.752,5.431,3.289a109.31,109.31,0,0,0-20.267-.747c-3.74.22-7.571-.044-11.2,1.26,2.5.964,5.15.671,7.737.87,11.346.873,22.731,2.227,34.081,1.386,14.867-1.1,29.748.42,44.584-.878.586-.051,1.173-.081,1.8-.125-.255-1.148-1.331-.408-1.745-1.046.087-.071.17-.2.27-.213,5.775-.85,8.938-4.233,9.266-9.974a21.839,21.839,0,0,0-3.111-12.285,11.481,11.481,0,0,0-7.178-5.59,63.534,63.534,0,0,0-6.342-1.568,7.293,7.293,0,0,1-4.786-2.537c-.445-.063-1.193.007-1.287-.208-.774-1.783-2.6-2.262-3.9-3.378C784.086,806.771,782.681,806.286,782.219,804.871ZM784.6,837.61a6.655,6.655,0,0,1,1.316-.317c5.64-.213,11.31.369,16.923-.632.314-.056.586.15.377,1.177H784.6c-4.632.574-4.632.574-5.405-2.4a11.954,11.954,0,0,0-9.556-5.327l-.055.9c2.61.469,5.123,1.118,6.653,3.589.9.791,1.879,1.766,1.352,2.955-.578,1.306-2.2,1.454-3.4,1.46a70.337,70.337,0,0,1-11.125-.5c-1.866.456-2.553-.353-2.83-2.19a31.684,31.684,0,0,0-4.8-13.24l-.573-.723q-.052-.594.544-.58l-.041-.047c-.711,1.022-1.246.091-1.7-.242a6.278,6.278,0,0,0-3.642-1.44c-3.843-.026-7.519-1.2-11.312-1.524-4.246-.369-8.488-.981-12.77-.466a151.374,151.374,0,0,1,15.341,2.91c1.128.289,2.688.267,3.263,1,.7.9-.795,1.946-1.029,3.048-.194.912-.527,1.8-.665,2.716-.319,2.126-.556,4.264-.839,6.489a48.957,48.957,0,0,0-7.538-2.913c-2.647-.694-5.355-1.551-8.05-1.207-3.954.5-6.041-.8-7.492-4.637-1.628-4.307-4.176-5.414-8.253-4.9a7.828,7.828,0,0,1,1.225-5.326c1.269-1.894,3.4-.774,5.089-1.162-.15-.73-1.456-.451-.964-1.288.239-.407.759-1.137,1.494-.812,3.293,1.457,6.879.822,10.278,1.488.969.19,1.347-.243,1.633-1.157a8.8,8.8,0,0,1,1.85-4.044c-.256,1.657-.421,2.878-.64,4.089-.141.779-.185,1.3.9,1.394,4.192.36,8.372.846,12.564,1.218,1.318.117,1.942-.546,1.409-1.883-1.387-3.475-2.854-6.91-5.4-9.746-.3-.022-.655-.073-.642-.426.013-.387.344-.38.648-.275l2.807-.065h5.106v.268h-4.82c1.227,3.189,3.527,5.772,5,8.82a4.211,4.211,0,0,0,3.626,2.463,30.6,30.6,0,0,1,7.006,1.435l1,.172a65.667,65.667,0,0,1,12.575,4.216c.5-.012.924.626,1.8-.014-4.549-2.719-9.343-4.5-14.066-6.485,8.439-.461,16.821-.787,25.21-.539,1.277.038,2.783-.407,3.793.715,1.59,1.768,3.679,2.195,5.85,2.542a24.6,24.6,0,0,1,9.222,3.37c.62.386,2.026,1.027,1.163,2.089-1.493,1.836.011,1.963,1.1,2.055.842.071,1.038.487,1.272,1.069a24.826,24.826,0,0,1,1.355,5.151c.381,2.211.226,3.756-2.37,4,.215.764,1.183.3,1.229,1.088-.729.57-2.052-.2-2.444.882-.3.833.735,1.026,1.667,1.592-2.361.04-2.647-1.016-2.406-2.568.107-.692,1.095-1.2.424-2.043a4.429,4.429,0,0,1-3.639,1.256c-6.707.039-13.413.141-20.119.268-.652.013-1.648-.551-1.882.707A8.107,8.107,0,0,0,784.6,837.61Zm-69.413-.158a.534.534,0,0,1,.874-.226l-.516.607c-.595.929-1.218,1.922-2.493,1.777-1.354-.154-1.93-1.286-2.262-2.408a15.23,15.23,0,0,1,1.256-12.156c1.312-2.344,2.257-2.27,3.724.121a3.224,3.224,0,0,0-2.332,1.267,11.635,11.635,0,0,0-.861,9.871A1.777,1.777,0,0,0,715.185,837.452ZM753.4,839.6c2.2-1.772,2.576-4.472,3.426-6.936.108,2.934-.648,5.494-3,7.386-2.313,1.9-4.417,1.928-6.421.071-4.1-3.8-3.4-13.255,1.255-16.333,1.075-.712,2.279-1.474,3.555-.186-4.28,2.777-5.673,10.776-2.661,14.864A2.851,2.851,0,0,0,753.4,839.6Zm-50,1.6c-1.491.875-3.726,1.307-4.218.332-1.124-2.229-2.189-.9-3.34-.543-1.875.577-3.637.439-4.873-1.182-1.255-1.645-.778-3.423.239-5.015a5.606,5.606,0,0,1,4.326-2.449c.494-.059.919-.245.963-.815a.7.7,0,0,0-.706-.773c-2.056-.105-.854-1.154-.424-1.714a6.756,6.756,0,0,1,5.976-2.556c.543.02,1.189.183,1.361-.526.222-.911-.5-1.031-1.137-1.044-1.363-.027-1.042-.891-.78-1.609a2.839,2.839,0,0,1,3.03-2.072,5.059,5.059,0,0,1,4.414,3.9c.153,1.336.382,2.512-1.932,2.026-3.941-.826-6.464,2.164-5.447,6.051.135.516.5,1.118.348,1.541C700.265,837.456,701.576,839.383,703.406,841.194Zm92.149,1.787c-12.322-1.9-24.331,1.966-36.629.9,1.669-2.227,3.519-3.135,6.247-2.753,3.072.431,6.377.949,9.3.258,4.883-1.153,9.758-.771,14.629-1.137C791.586,840.063,793.926,839.984,795.555,842.981ZM721.52,830.648c3.263.623,6.391,1.17,9.5,1.826,3.276.691,6.523,1.516,9.8,2.215.921.2,1.366.553,1.293,1.54-.09,1.212-.979.785-1.558.75-4.356-.263-8.707-.61-13.063-.872-4.858-.292-4.86-.265-6.051-4.907A2.753,2.753,0,0,1,721.52,830.648Zm-10.276,10.11c-2.307.826-3.566.69-6.124-.7-3.094-1.684-3.349-3.732-.707-6.086.392-.349.717-.666.538-1.151-.267-.724-.878-.458-1.378-.3-.408.126-.86.66-1.18.029a2.358,2.358,0,0,1,.189-2.449,3.25,3.25,0,0,1,3.7-1.357c.7.155,1.625.213,1.58,1.348C707.7,834.008,710.114,837.073,711.244,840.758Zm88.372-.778c-1.474,1.12-2.617,1.234-4.041,0Z" transform="translate(-688.533 -799.864)"/><path class="a" d="M859.634,801.68h-37.5l.014.211c8.982.921,17.977,1.737,26.939,2.823,2.99.362,5.643.34,8.052-1.706A12.342,12.342,0,0,1,859.634,801.68Z" transform="translate(-820.065 -800.543)"/><path class="a" d="M726.953,843.237c1.772-3.053.29-5.65-3.283-5.666-5.828-.027-11.657.014-17.485-.009a9.263,9.263,0,0,0-4.463,1.009l-.617.417-.888.819c-.431.675-1.436,1.188-.8,2.195a3.311,3.311,0,0,0,3.085,1.691c6.524-.118,13.05-.141,19.574-.227C723.7,843.443,725.326,843.315,726.953,843.237Z" transform="translate(-611.206 -813.968)"/><path class="a" d="M763.427,836c.576-.56.695-.979-.273-1.239-.891-.24-1.755-.576-2.631-.868-2.6-.453-5.194-.932-7.8-1.349a7.882,7.882,0,0,0-2.772-.151c-1.123.237.026.471.115.72l4.435,1.364a11.2,11.2,0,0,1-5.36-.6l-3.358-.635c.6,1.571,1.881,1.829,2.958,2.172a41.555,41.555,0,0,0,11.458,1.749A5.888,5.888,0,0,0,763.427,836Z" transform="translate(-676.521 -812.006)"/><path class="a" d="M747.843,857.5c2.836,0,5.673.064,8.505-.033.98-.033,2.552.371,2.272-1.609-.92-.078-2.618,1.066-1.98-1.4.2-.787-.822-.276-1.2-.548L754,853.862c-1.216-.059-2.431-.145-3.648-.172A2.722,2.722,0,0,0,747.843,857.5Zm5.665-1.486c-.375.115-.886.127-.886-.281,0-.36.548-.363.921-.312.792-.113,1.548-.728,2.376-.2a.61.61,0,0,1-.021.572C755.169,856.418,754.325,856.121,753.508,856.011Z" transform="translate(-672.456 -820.003)"/><path class="a" d="M697.439,851.572c.178-.044.507-.078.512-.136.034-.426-.3-.361-.571-.36Z" transform="translate(-580.312 -819.023)"/><path class="a" d="M698.012,852.3c.654.325.691.029.5-.5C698.1,851.724,697.932,851.888,698.012,852.3Z" transform="translate(-581.354 -819.29)"/><path class="a" d="M717.873,825.92c1.561.417,2.644,2.547,4.674,1.226a1.15,1.15,0,0,1,.294.417c.271,1.244,1.2,1.209,2.174,1.2,1.941-.026,3.883-.021,5.824,0,.886.009,1.649-.27,1.627-1.224-.022-.971-.84-1.148-1.7-1.141a45.437,45.437,0,0,1-7.208-.359h5.469l-.007-.649A34.848,34.848,0,0,0,717.873,825.92Z" transform="translate(-627.651 -809.338)"/><path class="a" d="M747.167,832.861a2.368,2.368,0,0,0,.474-.071c.233-.075.232-.217,0-.283a1.143,1.143,0,0,0-.578-.036C746.846,832.53,746.858,832.685,747.167,832.861Z" transform="translate(-661.175 -812.055)"/><path class="a" d="M695.8,850.86l.373-.166c-.126-.1-.242-.243-.381-.268-.1-.018-.224.133-.338.209Z" transform="translate(-577.326 -818.781)"/></g></svg>