<svg xmlns="http://www.w3.org/2000/svg" width="55.125" height="55.128" viewBox="0 0 55.125 55.128"><defs><style>.a{fill:#c7c7c7;}</style></defs><g transform="translate(0 13.781)"><path class="a" d="M53.418,138.336a1.723,1.723,0,0,0-1.723,1.723v19.507l-13.781,5.512V146.949a1.723,1.723,0,0,0-3.445,0v18.126l-13.781-5.512V132.269l7.983,3.194a1.723,1.723,0,0,0,1.278-3.2l-10.312-4.127h0l-.028-.01a1.708,1.708,0,0,0-1.278,0l-.031.01h0l-17.2,6.88a1.723,1.723,0,0,0-1.082,1.6v31.008a1.722,1.722,0,0,0,2.363,1.6l16.586-6.632,16.555,6.622h0l.031.014a1.709,1.709,0,0,0,1.278,0l.031-.014h0l17.2-6.877a1.733,1.733,0,0,0,1.078-1.6V140.059A1.723,1.723,0,0,0,53.418,138.336ZM17.242,159.562,3.461,165.075v-27.3l13.781-5.512Z" transform="translate(-0.016 -128)"/></g><g transform="translate(37.898 6.891)"><path class="a" d="M357.184,64a5.168,5.168,0,1,0,5.168,5.168A5.174,5.174,0,0,0,357.184,64Zm0,6.891a1.723,1.723,0,1,1,1.723-1.723A1.723,1.723,0,0,1,357.184,70.891Z" transform="translate(-352.016 -64)"/></g><g transform="translate(31.008)"><path class="a" d="M300.074,0a12.072,12.072,0,0,0-12.059,12.059c0,6.188,9.674,17.147,10.777,18.377a1.722,1.722,0,0,0,2.563,0c1.1-1.23,10.777-12.189,10.777-18.377A12.072,12.072,0,0,0,300.074,0Zm0,26.656c-3.762-4.462-8.613-11.311-8.613-14.6a8.613,8.613,0,1,1,17.226,0C308.688,15.342,303.837,22.195,300.074,26.656Z" transform="translate(-288.016)"/></g></svg>