<svg xmlns="http://www.w3.org/2000/svg" width="60" height="60" viewBox="0 0 60 60"><defs><style>.a{fill:#c7c7c7;}</style></defs><path class="a" d="M48.552,31.125a21.094,21.094,0,1,0-37.1,0L0,50.63l12.95-3.436L16.376,60l10.47-18.048a21.207,21.207,0,0,0,6.307,0L43.624,60,47.05,47.194,60,50.63ZM17.986,47.876l-1.721-6.423L9.88,43.164l4.556-7.848a21.178,21.178,0,0,0,7.73,5.363ZM13.594,21.094A16.406,16.406,0,1,1,30,37.5,16.425,16.425,0,0,1,13.594,21.094ZM43.736,41.453l-1.721,6.423-4.18-7.2a21.178,21.178,0,0,0,7.73-5.363l4.556,7.848Z" transform="translate(0)"/><path class="a" d="M164.842,64.947l-9.641-1.4-4.312-8.736-4.312,8.736-9.641,1.4,6.977,6.8-1.647,9.6,8.623-4.534,8.623,4.534-1.647-9.6Zm-11.555,7.834-2.4-1.261-2.4,1.26.458-2.67-1.94-1.891,2.681-.39,1.2-2.429,1.2,2.429,2.681.39-1.94,1.891Z" transform="translate(-120.889 -48.387)"/></svg>