<svg xmlns="http://www.w3.org/2000/svg" width="60" height="58.696" viewBox="0 0 60 58.696"><defs><style>.a{fill:#c7c7c7;}</style></defs><g transform="translate(0 11.739)"><path class="a" d="M55.72,121.39H54.139a18.778,18.778,0,0,0-1.965-3.006v-10.69a1.957,1.957,0,0,0-1.957-1.957,9.765,9.765,0,0,0-8.738,5.374,31.974,31.974,0,0,0-9.523-1.461c-12.679,0-24.13,8.487-24.13,19.565H6.909a3,3,0,0,1-3-3v-2.874a1.957,1.957,0,0,0-3.913,0v2.874a6.917,6.917,0,0,0,6.909,6.909H8.3a19,19,0,0,0,7.356,10.681v6.927a1.957,1.957,0,0,0,1.957,1.957h7.826a1.957,1.957,0,0,0,1.957-1.957v-2.255a35.117,35.117,0,0,0,9.13,0v2.255a1.957,1.957,0,0,0,1.957,1.957H46.3a1.957,1.957,0,0,0,1.957-1.957V143.81a20.136,20.136,0,0,0,5.878-6.768H55.72a4.285,4.285,0,0,0,4.28-4.28V125.67A4.285,4.285,0,0,0,55.72,121.39Zm0,11.739H52.906a1.957,1.957,0,0,0-1.8,1.181,16.155,16.155,0,0,1-5.9,6.869,1.956,1.956,0,0,0-.861,1.621v5.981H40.435v-2.619a1.958,1.958,0,0,0-2.4-1.906,30.487,30.487,0,0,1-12.161,0,1.958,1.958,0,0,0-2.4,1.906v2.619H19.565V142.8a1.957,1.957,0,0,0-.861-1.621c-4.426-2.991-6.965-7.351-6.965-11.963,0-8.484,9.258-15.652,20.217-15.652a26.765,26.765,0,0,1,9.892,1.858,1.957,1.957,0,0,0,2.673-1.325,5.852,5.852,0,0,1,3.74-4.114v9.105a1.957,1.957,0,0,0,.474,1.276,14.718,14.718,0,0,1,2.375,3.757,1.957,1.957,0,0,0,1.8,1.181H55.72a.367.367,0,0,1,.367.367v7.092h0A.367.367,0,0,1,55.72,133.129Z" transform="translate(0 -105.738)"/></g><g transform="translate(19.716 23.478)"><path class="a" d="M180.486,205.913a20.94,20.94,0,0,0-11.421,3.268,1.956,1.956,0,1,0,2.274,3.184,17.061,17.061,0,0,1,9.146-2.539,1.956,1.956,0,1,0,0-3.913Z" transform="translate(-168.246 -205.913)"/></g><g transform="translate(44.348 31.304)"><circle class="a" cx="1.957" cy="1.957" r="1.957"/></g><g transform="translate(7.826)"><path class="a" d="M74.608,5.565a7.826,7.826,0,1,0,7.826,7.826A7.835,7.835,0,0,0,74.608,5.565Zm0,11.739a3.913,3.913,0,1,1,3.913-3.913A3.917,3.917,0,0,1,74.608,17.3Z" transform="translate(-66.782 -5.565)"/></g></svg>