<svg xmlns="http://www.w3.org/2000/svg" width="40" height="40" viewBox="0 0 40 40"><defs><style>.a{fill:#fff;}</style></defs><g transform="translate(-163 -178)"><path class="a" d="M-784.924,16.531a15.224,15.224,0,0,1-7.1-2.1l-7.454,2.062,2.062-7.454a15.221,15.221,0,0,1-2.118-7.763A15.289,15.289,0,0,1-784.262-14,15.292,15.292,0,0,1-769,.611a12.959,12.959,0,0,1,9.468,12.46,12.891,12.891,0,0,1-1.8,6.579l1.741,6.294-6.294-1.741a12.889,12.889,0,0,1-6.579,1.8A12.958,12.958,0,0,1-784.924,16.531Zm2.424-.086a10.612,10.612,0,0,0,10.036,7.212,10.538,10.538,0,0,0,5.758-1.7l.443-.287,3.311.916-.916-3.311.287-.443a10.538,10.538,0,0,0,1.7-5.758,10.614,10.614,0,0,0-7.212-10.037A15.3,15.3,0,0,1-782.5,16.445Zm-8.715-4.269a12.891,12.891,0,0,0,6.953,2.027A12.943,12.943,0,0,0-771.332,1.274a12.943,12.943,0,0,0-12.929-12.929A12.943,12.943,0,0,0-797.191,1.274a12.889,12.889,0,0,0,2.027,6.953l.282.44-1.235,4.462,4.462-1.235Zm5.782-2.66V7.172h2.344V9.516Zm0-4.687V1.969l2.752-2.52a2.319,2.319,0,0,0,.763-1.73,2.346,2.346,0,0,0-2.344-2.344,2.346,2.346,0,0,0-2.344,2.344h-2.344a4.692,4.692,0,0,1,4.687-4.687,4.692,4.692,0,0,1,4.687,4.687A4.7,4.7,0,0,1-781.1,1.178L-783.09,3V4.829Z" transform="translate(962.535 192)"/></g></svg>