<svg xmlns="http://www.w3.org/2000/svg" width="60" height="60" viewBox="0 0 60 60"><path d="M54.3,5.705A19.507,19.507,0,0,0,21.658,24.548L.573,45.633A1.951,1.951,0,0,0,0,47.013V58.049A1.951,1.951,0,0,0,1.952,60H12.988a1.951,1.951,0,0,0,1.379-.572l2.759-2.759A1.951,1.951,0,0,0,17.7,55.29V51.723h3.567a1.951,1.951,0,0,0,1.379-.571L25.4,48.392a1.951,1.951,0,0,0,.571-1.379V43.446h3.567a1.951,1.951,0,0,0,1.379-.572l4.531-4.531A19.508,19.508,0,0,0,54.3,5.705ZM51.537,30.537a15.541,15.541,0,0,1-16.02,3.753,1.951,1.951,0,0,0-2,.47l-4.783,4.783h-4.71a1.951,1.951,0,0,0-1.951,1.951V46.2l-1.616,1.616h-4.71A1.951,1.951,0,0,0,13.8,49.772v4.71L12.18,56.1H3.9V47.821L25.241,26.483a1.951,1.951,0,0,0,.47-2,15.607,15.607,0,1,1,25.826,6.053Z" transform="translate(-0.001 0)"/><g transform="translate(35.458 8.941)"><path d="M315.9,78.581a7.8,7.8,0,1,0,0,11.036A7.812,7.812,0,0,0,315.9,78.581Zm-2.759,8.277a3.9,3.9,0,1,1,0-5.518A3.907,3.907,0,0,1,313.138,86.858Z" transform="translate(-302.578 -76.299)"/></g></svg>